<svg width="33" height="45" viewBox="0 0 33 45" fill="none" xmlns="http://www.w3.org/2000/svg">
<path d="M18.75 17.7187H5.025L4.96875 15.9187H18.6938L18.75 17.7187Z" fill="#FE5000"/>
<path d="M9.13125 14.0062H4.96875V12.2625H9.13125V14.0062Z" fill="#FE5000"/>
<path fill-rule="evenodd" clip-rule="evenodd" d="M23.25 10.9688L30.45 19.9688C31.6312 21.4312 32.25 23.2875 32.25 25.2V44.325C32.25 44.7188 31.9125 45.0562 31.5187 45.0562H19.8188C15.0938 45.0562 11.2688 41.2313 11.2688 36.5063V34.5375H4.51875C2.4375 34.5375 0.75 32.85 0.75 30.7687V3.76875C0.75 1.6875 2.4375 0 4.51875 0H19.4812C21.5625 0 23.25 1.6875 23.25 3.76875V10.9688ZM15.0375 33.0187H17.3438C17.2875 32.625 17.2312 32.2313 17.2875 31.8375V29.5312L15.0375 26.8875V33.0187ZM19.7625 43.4813H30.675V25.1438C30.675 23.625 30.1687 22.1063 29.2125 20.925L23.1937 13.3875V24.975L26.0062 27.9563L24.9375 28.9688L14.8687 18.2812C14.5312 17.8875 14.025 17.6625 13.5187 17.6625C13.0125 17.6625 12.5062 17.8875 12.1125 18.225C11.325 19.0125 11.2688 20.1375 11.9437 20.925L18.5812 28.7437C18.6938 28.9125 18.75 29.0812 18.75 29.25V31.8375C18.75 35.325 20.9438 38.5312 24.2625 39.7687L23.7562 41.175C20.7188 40.05 18.4688 37.5187 17.625 34.4813H12.7312V36.45C12.7312 40.3312 15.8812 43.4813 19.7625 43.4813ZM21.7312 3.76875C21.7312 2.53125 20.7188 1.51875 19.4812 1.51875H18.75H17.2312H14.9812H13.5187H4.51875C3.28125 1.51875 2.26875 2.53125 2.26875 3.76875V30.7687C2.26875 32.0062 3.28125 33.0187 4.51875 33.0187H13.5187V25.0875L10.8187 21.8813C9.69375 20.5312 9.75 18.5063 11.0437 17.2125L11.1 17.1562C11.7188 16.5375 12.6187 16.2 13.5187 16.2L14.9812 16.5375C15.3187 16.7062 15.6562 16.9875 15.9375 17.2687L17.2312 18.6187L18.75 20.25L21.7312 23.4563V3.76875Z" fill="#FE5000"/>
<path fill-rule="evenodd" clip-rule="evenodd" d="M10.2562 3.76875H5.75625C5.3625 3.76875 5.025 4.10625 5.025 4.5V9C5.025 9.39375 5.3625 9.73125 5.75625 9.73125H10.2562C10.65 9.73125 10.9875 9.39375 10.9875 9V4.5C10.9875 4.10625 10.65 3.76875 10.2562 3.76875ZM6.54375 8.26875H9.525V5.2875H6.54375V8.26875Z" fill="#FE5000"/>
</svg>
