<svg width="45" height="45" viewBox="0 0 45 45" fill="none" xmlns="http://www.w3.org/2000/svg">
<path d="M14.3502 31.5C14.1341 31.5 13.9178 31.4174 13.7528 31.2522C13.4228 30.9222 13.4228 30.3874 13.7528 30.0573L30.0561 13.7477C30.3859 13.4174 30.9209 13.4174 31.2507 13.7477C31.5807 14.0777 31.5807 14.6126 31.2507 14.9426L14.9474 31.2522C14.7826 31.4174 14.5663 31.5 14.3502 31.5Z" fill="#FE5000"/>
<path d="M17.5129 21.5343C15.3003 21.5343 13.5001 19.7333 13.5001 17.52C13.5001 15.3066 15.3003 13.5055 17.5129 13.5055C19.7254 13.5055 21.5256 15.3064 21.5256 17.5198C21.5256 19.7332 19.7255 21.5343 17.5129 21.5343ZM17.5129 15.1957C16.232 15.1957 15.1897 16.2384 15.1897 17.5198C15.1897 18.8012 16.2318 19.8439 17.5129 19.8439C18.7939 19.8439 19.8361 18.8012 19.8361 17.5198C19.8361 16.2384 18.7939 15.1957 17.5129 15.1957Z" fill="#FE5000"/>
<path d="M27.4869 31.4992C25.2744 31.4992 23.4742 29.6983 23.4742 27.4849C23.4742 25.2715 25.2744 23.4706 27.4869 23.4706C29.6995 23.4706 31.4997 25.2714 31.4997 27.4849C31.4997 29.6984 29.6995 31.4992 27.4869 31.4992ZM27.4869 25.1607C26.206 25.1607 25.1637 26.2033 25.1637 27.4848C25.1637 28.7662 26.2059 29.8089 27.4869 29.8089C28.768 29.8089 29.8101 28.7662 29.8101 27.4848C29.8101 26.2033 28.7678 25.1607 27.4869 25.1607Z" fill="#FE5000"/>
<circle cx="22.5" cy="22.5" r="21.75" stroke="#FE5000" stroke-width="1.5"/>
</svg>
