<svg width="49" height="45" viewBox="0 0 49 45" fill="none" xmlns="http://www.w3.org/2000/svg">
<path d="M41.0989 31.8L36.9312 37.8L34.0287 35.4C33.731 35.1 33.21 35.175 32.9868 35.475C32.6891 35.775 32.7635 36.3 33.0612 36.525L36.6335 39.45C36.7823 39.525 36.9312 39.6 37.08 39.6H37.1544C37.3777 39.6 37.5266 39.45 37.6754 39.3L42.2896 32.625C42.5129 32.25 42.4385 31.8 42.1408 31.575C41.7687 31.425 41.3221 31.5 41.0989 31.8Z" fill="#FE5000"/>
<path d="M25.3212 19.5V11.925C25.3212 11.475 25.0235 11.175 24.5769 11.175C24.1304 11.175 23.8327 11.475 23.8327 11.925V19.5C22.7908 19.8 21.8977 20.625 21.6744 21.75H16.3904C15.9439 21.75 15.6462 22.05 15.6462 22.5C15.6462 22.95 15.9439 23.25 16.3904 23.25H21.7489C22.121 24.525 23.2373 25.425 24.5769 25.425C26.2143 25.425 27.5539 24.075 27.5539 22.425C27.5539 21 26.5864 19.875 25.3212 19.5ZM24.5769 23.925C23.7583 23.925 23.0885 23.25 23.0885 22.425C23.0885 21.6 23.7583 20.925 24.5769 20.925C25.3956 20.925 26.0654 21.6 26.0654 22.425C26.0654 23.25 25.3956 23.925 24.5769 23.925Z" fill="#FE5000"/>
<path d="M24.5769 7.42502C25.0235 7.42502 25.3212 7.12502 25.3212 6.67502V5.92502C25.3212 5.47502 25.0235 5.17502 24.5769 5.17502C24.1304 5.17502 23.8327 5.47502 23.8327 5.92502V6.67502C23.8327 7.05002 24.1304 7.42502 24.5769 7.42502Z" fill="#FE5000"/>
<path d="M24.5769 37.425C24.1304 37.425 23.8327 37.725 23.8327 38.175V38.925C23.8327 39.375 24.1304 39.675 24.5769 39.675C25.0235 39.675 25.3212 39.375 25.3212 38.925V38.175C25.3212 37.725 25.0235 37.425 24.5769 37.425Z" fill="#FE5000"/>
<path d="M40.2058 23.175H40.95C41.3965 23.175 41.6942 22.875 41.6942 22.425C41.6942 21.975 41.3965 21.675 40.95 21.675H40.2058C39.7592 21.675 39.4615 21.975 39.4615 22.425C39.4615 22.875 39.7592 23.175 40.2058 23.175Z" fill="#FE5000"/>
<path d="M8.94806 21.675H8.20383C7.75729 21.675 7.45959 21.975 7.45959 22.425C7.45959 22.875 7.75729 23.175 8.20383 23.175H8.94806C9.39459 23.175 9.69229 22.875 9.69229 22.425C9.69229 21.975 9.39459 21.675 8.94806 21.675Z" fill="#FE5000"/>
<path d="M35.5915 12C35.8148 12 35.9636 11.925 36.1125 11.775L36.6334 11.25C36.9311 10.95 36.9311 10.5 36.6334 10.2C36.3358 9.90001 35.8892 9.90001 35.5915 10.2L35.0706 10.725C34.7729 11.025 34.7729 11.475 35.0706 11.775C35.2194 11.925 35.4427 12 35.5915 12Z" fill="#FE5000"/>
<path d="M12.9669 33L12.4459 33.525C12.1482 33.825 12.1482 34.275 12.4459 34.575C12.5948 34.725 12.818 34.8 12.9669 34.8C13.1157 34.8 13.339 34.725 13.4878 34.575L14.0088 34.05C14.3065 33.75 14.3065 33.3 14.0088 33C13.7111 32.7 13.2646 32.7 12.9669 33Z" fill="#FE5000"/>
<path d="M13.5623 10.2C13.2646 9.90001 12.8181 9.90001 12.5204 10.2C12.2227 10.5 12.2227 10.95 12.5204 11.25L13.0414 11.775C13.1902 11.925 13.4135 12 13.5623 12C13.7112 12 13.9344 11.925 14.0833 11.775C14.381 11.475 14.381 11.025 14.0833 10.725L13.5623 10.2Z" fill="#FE5000"/>
<path d="M46.9038 22.5C46.9038 10.125 36.8567 0 24.5769 0C12.2971 0 2.25 10.125 2.25 22.5C2.25 34.875 12.2971 45 24.5769 45C27.1817 45 29.7865 44.55 32.2425 43.65C33.6565 44.55 35.3683 45 37.2288 45C42.5873 45 46.9038 40.65 46.9038 35.25C46.9038 33.45 46.3829 31.725 45.5642 30.225C46.4573 27.75 46.9038 25.125 46.9038 22.5ZM30.8285 42.525C28.819 43.2 26.7352 43.5 24.5769 43.5C13.1158 43.5 3.73846 34.05 3.73846 22.5C3.73846 10.95 13.1158 1.5 24.5769 1.5C36.0381 1.5 45.4154 10.95 45.4154 22.5C45.4154 24.675 45.1177 26.775 44.4479 28.8C44.3735 28.725 44.299 28.65 44.299 28.575C44.1502 28.425 44.0758 28.35 43.9269 28.2C43.7781 28.05 43.7036 27.975 43.5548 27.9C43.406 27.825 43.3315 27.675 43.1827 27.6C43.0338 27.525 42.885 27.375 42.7361 27.3C42.5873 27.225 42.5129 27.15 42.364 27.075C42.2152 27 42.0663 26.85 41.9175 26.775C41.7687 26.7 41.6198 26.625 41.5454 26.55C41.3965 26.475 41.2477 26.4 41.0988 26.325C40.95 26.25 40.8011 26.175 40.6523 26.175C40.5035 26.1 40.3546 26.025 40.2058 26.025C40.0569 25.95 39.8336 25.95 39.6848 25.875C39.536 25.875 39.3871 25.8 39.3127 25.8C39.0894 25.725 38.8661 25.725 38.6429 25.725C38.5685 25.725 38.4196 25.725 38.3452 25.65C37.8987 25.5 37.601 25.5 37.2288 25.5C31.8704 25.5 27.5538 29.85 27.5538 35.25C27.5538 35.625 27.5538 35.925 27.6283 36.3C27.6283 36.375 27.6283 36.525 27.7027 36.6C27.7027 36.825 27.7771 37.05 27.7771 37.275C27.7771 37.425 27.8515 37.575 27.8515 37.65C27.926 37.8 27.926 38.025 28.0004 38.175C28.0748 38.325 28.0748 38.475 28.1492 38.625C28.2236 38.775 28.2981 38.925 28.2981 39.075C28.3725 39.225 28.4469 39.375 28.5213 39.525C28.5958 39.675 28.6702 39.825 28.7446 39.9C28.819 40.05 28.8935 40.2 29.0423 40.35C29.1167 40.5 29.1912 40.575 29.2656 40.725C29.34 40.875 29.4888 41.025 29.5633 41.175C29.6377 41.325 29.7865 41.4 29.861 41.55C29.9354 41.7 30.0842 41.775 30.1587 41.925C30.3075 42.075 30.3819 42.15 30.5308 42.3C30.6796 42.375 30.754 42.45 30.8285 42.525ZM37.2288 43.5C35.5915 43.5 34.0287 42.975 32.7635 42.15C32.4658 42 32.2425 41.775 32.0192 41.55C31.9448 41.475 31.9448 41.475 31.8704 41.4C31.7215 41.25 31.4983 41.1 31.3494 40.875C31.275 40.8 31.2006 40.725 31.1262 40.65C30.9773 40.5 30.8285 40.35 30.754 40.2C30.6796 40.125 30.6052 40.05 30.5308 39.9C30.3819 39.675 30.2331 39.45 30.0842 39.225C30.0842 39.15 30.0098 39.075 30.0098 39.075C29.861 38.85 29.7865 38.625 29.6377 38.325C29.5633 38.25 29.5633 38.1 29.5633 38.025C29.4888 37.8 29.4144 37.65 29.34 37.425C29.34 37.35 29.2656 37.2 29.2656 37.125C29.1912 36.9 29.1912 36.675 29.1167 36.45C29.1167 36.375 29.1167 36.225 29.0423 36.15C29.0423 35.85 28.9679 35.55 28.9679 35.175C28.9679 30.6 32.6146 26.925 37.1544 26.925C37.4521 26.925 37.8242 26.925 38.1219 27C38.1963 27 38.3452 27 38.4196 27.075C38.6429 27.075 38.8661 27.15 39.0894 27.225C39.1638 27.225 39.3127 27.3 39.3871 27.3C39.6104 27.375 39.7592 27.45 39.9825 27.525C40.0569 27.525 40.2058 27.6 40.2802 27.6C40.5035 27.675 40.8011 27.825 41.0244 27.9C41.0988 27.9 41.1733 27.975 41.2477 27.975C41.471 28.125 41.6942 28.275 41.9175 28.425C41.9919 28.5 42.0663 28.575 42.2152 28.65C42.364 28.8 42.5129 28.875 42.6617 29.025C42.7361 29.1 42.8106 29.175 42.885 29.25C43.0338 29.4 43.2571 29.625 43.406 29.775C43.4804 29.85 43.4804 29.85 43.5548 29.925C43.7781 30.15 43.9269 30.45 44.1502 30.675C44.9688 31.95 45.4898 33.525 45.4898 35.175C45.4154 39.825 41.7687 43.5 37.2288 43.5Z" fill="#FE5000"/>
</svg>
